<svg width="456" height="456" viewBox="0 0 456 456" fill="none" xmlns="http://www.w3.org/2000/svg">
<path d="M229.25 185.539C229.25 184.255 229.658 183.205 230.475 182.389C231.292 181.572 232.342 181.164 233.625 181.164H252.35C253.633 181.164 254.683 181.572 255.5 182.389C256.317 183.205 256.725 184.255 256.725 185.539V205.139C256.725 206.422 256.317 207.472 255.5 208.289C254.683 209.105 253.633 209.514 252.35 209.514H233.625C232.342 209.514 231.292 209.105 230.475 208.289C229.658 207.472 229.25 206.422 229.25 205.139V185.539ZM168 185.539C168 184.255 168.408 183.205 169.225 182.389C170.042 181.572 171.092 181.164 172.375 181.164H191.1C192.383 181.164 193.433 181.572 194.25 182.389C195.067 183.205 195.475 184.255 195.475 185.539V205.139C195.475 206.422 195.067 207.472 194.25 208.289C193.433 209.105 192.383 209.514 191.1 209.514H172.375C171.092 209.514 170.042 209.105 169.225 208.289C168.408 207.472 168 206.422 168 205.139V185.539ZM140.175 228.624C140.175 227.457 140.642 226.407 141.575 225.474C142.392 224.657 143.383 224.249 144.55 224.249H156.975C158.258 224.249 159.308 224.657 160.125 225.474C160.942 226.407 161.35 227.399 161.35 228.449C161.583 233.232 163.042 237.199 165.725 240.349C168.292 243.616 172.083 246.182 177.1 248.049C182.117 249.916 188.358 251.257 195.825 252.074C203.292 252.891 212.042 253.299 222.075 253.299C232.108 253.299 240.8 252.891 248.15 252.074C255.617 251.257 261.858 249.916 266.875 248.049C272.008 246.182 275.858 243.616 278.425 240.349C280.992 237.199 282.392 233.232 282.625 228.449C282.625 227.399 283.033 226.407 283.85 225.474C284.667 224.657 285.717 224.249 287 224.249H299.425C300.592 224.249 301.583 224.657 302.4 225.474C303.333 226.407 303.8 227.457 303.8 228.624C303.8 236.557 302.225 243.557 299.075 249.624C296.042 255.691 291.258 260.766 284.725 264.849C278.192 268.932 269.733 272.024 259.35 274.124C249.083 276.224 236.658 277.274 222.075 277.274C207.608 277.274 195.183 276.224 184.8 274.124C174.417 272.024 165.958 268.932 159.425 264.849C152.775 260.766 147.933 255.691 144.9 249.624C141.75 243.557 140.175 236.557 140.175 228.624Z" fill="white"/>
</svg>
