<svg width="456" height="456" viewBox="0 0 456 456" fill="none" xmlns="http://www.w3.org/2000/svg">
<path d="M17.325 208C16.0417 208 14.9917 207.592 14.175 206.775C13.3583 205.958 12.95 204.908 12.95 203.625V89.875C12.95 88.5917 13.3583 87.5417 14.175 86.725C14.9917 85.9083 16.0417 85.5 17.325 85.5H65.1C74.55 85.5 82.7167 86.9583 89.6 89.875C96.6 92.7917 102.025 97.225 105.875 103.175C109.842 109.008 111.825 116.3 111.825 125.05C111.825 133.917 109.842 141.267 105.875 147.1C102.025 152.817 96.6 157.075 89.6 159.875C82.7167 162.675 74.55 164.075 65.1 164.075H41.65V203.625C41.65 204.908 41.2417 205.958 40.425 206.775C39.6083 207.592 38.5583 208 37.275 208H17.325ZM41.125 142.375H64.225C70.175 142.375 74.7833 140.917 78.05 138C81.4333 135.083 83.125 130.708 83.125 124.875C83.125 119.742 81.6083 115.542 78.575 112.275C75.6583 109.008 70.875 107.375 64.225 107.375H41.125V142.375ZM133.316 208C132.149 208 131.157 207.592 130.341 206.775C129.524 205.958 129.116 204.908 129.116 203.625V121.375C129.116 120.092 129.524 119.042 130.341 118.225C131.157 117.408 132.149 117 133.316 117H150.816C152.099 117 153.149 117.408 153.966 118.225C154.782 119.042 155.191 120.092 155.191 121.375V203.625C155.191 204.908 154.782 205.958 153.966 206.775C153.149 207.592 152.099 208 150.816 208H133.316ZM132.791 103C131.624 103 130.632 102.592 129.816 101.775C128.999 100.958 128.591 99.9083 128.591 98.625V84.625C128.591 83.3417 128.999 82.2917 129.816 81.475C130.632 80.5417 131.624 80.075 132.791 80.075H151.166C152.449 80.075 153.499 80.5417 154.316 81.475C155.249 82.2917 155.716 83.3417 155.716 84.625V98.625C155.716 99.9083 155.249 100.958 154.316 101.775C153.499 102.592 152.449 103 151.166 103H132.791ZM185.782 208C184.615 208 183.623 207.592 182.807 206.775C181.99 205.958 181.582 204.908 181.582 203.625V121.375C181.582 120.092 181.99 119.042 182.807 118.225C183.623 117.408 184.615 117 185.782 117H202.932C204.215 117 205.265 117.408 206.082 118.225C206.898 119.042 207.307 120.092 207.307 121.375V128.2C210.34 124.467 214.248 121.375 219.032 118.925C223.815 116.475 229.648 115.25 236.532 115.25C243.415 115.25 249.423 116.825 254.557 119.975C259.807 123.008 263.89 127.5 266.807 133.45C269.84 139.283 271.357 146.4 271.357 154.8V203.625C271.357 204.908 270.89 205.958 269.957 206.775C269.14 207.592 268.148 208 266.982 208H248.432C247.148 208 246.098 207.592 245.282 206.775C244.465 205.958 244.057 204.908 244.057 203.625V155.85C244.057 149.667 242.54 144.883 239.507 141.5C236.59 138 232.273 136.25 226.557 136.25C221.073 136.25 216.698 138 213.432 141.5C210.165 144.883 208.532 149.667 208.532 155.85V203.625C208.532 204.908 208.123 205.958 207.307 206.775C206.49 207.592 205.498 208 204.332 208H185.782ZM335.024 246.5C326.39 246.5 319.215 245.333 313.499 243C307.782 240.783 303.232 238.042 299.849 234.775C296.582 231.625 294.249 228.475 292.849 225.325C291.449 222.175 290.69 219.725 290.574 217.975C290.457 216.692 290.865 215.642 291.799 214.825C292.732 214.008 293.782 213.6 294.949 213.6H313.674C314.724 213.6 315.599 213.833 316.299 214.3C317.115 214.883 317.757 215.817 318.224 217.1C318.807 218.5 319.624 219.958 320.674 221.475C321.724 223.108 323.299 224.45 325.399 225.5C327.615 226.55 330.532 227.075 334.149 227.075C338.232 227.075 341.615 226.492 344.299 225.325C346.982 224.158 348.965 222.175 350.249 219.375C351.649 216.575 352.349 212.783 352.349 208V196.275C349.549 199.308 345.99 201.817 341.674 203.8C337.474 205.783 332.282 206.775 326.099 206.775C320.032 206.775 314.665 205.842 309.999 203.975C305.449 201.992 301.657 199.25 298.624 195.75C295.59 192.133 293.257 187.817 291.624 182.8C289.99 177.783 289.057 172.125 288.824 165.825C288.707 162.675 288.707 159.583 288.824 156.55C289.057 150.483 289.99 144.942 291.624 139.925C293.257 134.908 295.59 130.592 298.624 126.975C301.657 123.242 305.449 120.383 309.999 118.4C314.665 116.3 320.032 115.25 326.099 115.25C332.515 115.25 337.999 116.475 342.549 118.925C347.099 121.375 350.832 124.408 353.749 128.025V121.375C353.749 120.208 354.157 119.217 354.974 118.4C355.791 117.467 356.782 117 357.949 117H375.099C376.265 117 377.257 117.467 378.074 118.4C379.007 119.217 379.474 120.208 379.474 121.375L379.649 205.55C379.649 214.3 377.957 221.708 374.574 227.775C371.19 233.842 366.174 238.45 359.524 241.6C352.991 244.867 344.824 246.5 335.024 246.5ZM334.149 186.3C338.349 186.3 341.732 185.367 344.299 183.5C346.982 181.517 348.965 179.067 350.249 176.15C351.532 173.117 352.232 169.967 352.349 166.7C352.465 165.417 352.524 163.608 352.524 161.275C352.524 158.825 352.465 156.958 352.349 155.675C352.232 152.408 351.532 149.317 350.249 146.4C348.965 143.367 346.982 140.917 344.299 139.05C341.732 137.183 338.349 136.25 334.149 136.25C329.715 136.25 326.215 137.242 323.649 139.225C321.082 141.092 319.215 143.6 318.049 146.75C316.882 149.9 316.182 153.342 315.949 157.075C315.832 159.875 315.832 162.617 315.949 165.3C316.182 169.15 316.882 172.65 318.049 175.8C319.215 178.95 321.082 181.517 323.649 183.5C326.215 185.367 329.715 186.3 334.149 186.3ZM14.35 368C13.0667 368 12.0167 367.592 11.2 366.775C10.3833 365.958 9.975 364.908 9.975 363.625V344.025C9.975 342.742 10.3833 341.692 11.2 340.875C12.0167 340.058 13.0667 339.65 14.35 339.65H33.95C35.2333 339.65 36.2833 340.058 37.1 340.875C37.9167 341.692 38.325 342.742 38.325 344.025V363.625C38.325 364.908 37.9167 365.958 37.1 366.775C36.2833 367.592 35.2333 368 33.95 368H14.35ZM65.0057 368C63.7223 368 62.6723 367.592 61.8557 366.775C61.039 365.958 60.6307 364.908 60.6307 363.625V249.875C60.6307 248.592 61.039 247.542 61.8557 246.725C62.6723 245.908 63.7223 245.5 65.0057 245.5H108.931C120.597 245.5 130.339 247.367 138.156 251.1C145.972 254.717 151.922 260.083 156.006 267.2C160.206 274.2 162.422 282.892 162.656 293.275C162.772 298.408 162.831 302.9 162.831 306.75C162.831 310.6 162.772 315.033 162.656 320.05C162.306 330.9 160.147 339.883 156.181 347C152.214 354.117 146.381 359.425 138.681 362.925C130.981 366.308 121.356 368 109.806 368H65.0057ZM88.4557 345.425H108.931C114.764 345.425 119.547 344.55 123.281 342.8C127.014 341.05 129.756 338.308 131.506 334.575C133.372 330.725 134.364 325.767 134.481 319.7C134.597 316.317 134.656 313.283 134.656 310.6C134.772 307.917 134.772 305.233 134.656 302.55C134.656 299.867 134.597 296.892 134.481 293.625C134.247 284.875 131.972 278.458 127.656 274.375C123.456 270.175 116.922 268.075 108.056 268.075H88.4557V345.425ZM186.978 368C185.811 368 184.82 367.592 184.003 366.775C183.186 365.958 182.778 364.908 182.778 363.625V281.375C182.778 280.092 183.186 279.042 184.003 278.225C184.82 277.408 185.811 277 186.978 277H204.478C205.761 277 206.811 277.408 207.628 278.225C208.445 279.042 208.853 280.092 208.853 281.375V363.625C208.853 364.908 208.445 365.958 207.628 366.775C206.811 367.592 205.761 368 204.478 368H186.978ZM186.453 263C185.286 263 184.295 262.592 183.478 261.775C182.661 260.958 182.253 259.908 182.253 258.625V244.625C182.253 243.342 182.661 242.292 183.478 241.475C184.295 240.542 185.286 240.075 186.453 240.075H204.828C206.111 240.075 207.161 240.542 207.978 241.475C208.911 242.292 209.378 243.342 209.378 244.625V258.625C209.378 259.908 208.911 260.958 207.978 261.775C207.161 262.592 206.111 263 204.828 263H186.453ZM239.444 368C238.277 368 237.285 367.592 236.469 366.775C235.652 365.958 235.244 364.908 235.244 363.625V281.375C235.244 280.092 235.652 279.042 236.469 278.225C237.285 277.408 238.277 277 239.444 277H256.594C257.877 277 258.927 277.408 259.744 278.225C260.56 279.042 260.969 280.092 260.969 281.375V288.2C264.002 284.467 267.91 281.375 272.694 278.925C277.477 276.475 283.31 275.25 290.194 275.25C297.077 275.25 303.085 276.825 308.219 279.975C313.469 283.008 317.552 287.5 320.469 293.45C323.502 299.283 325.019 306.4 325.019 314.8V363.625C325.019 364.908 324.552 365.958 323.619 366.775C322.802 367.592 321.81 368 320.644 368H302.094C300.81 368 299.76 367.592 298.944 366.775C298.127 365.958 297.719 364.908 297.719 363.625V315.85C297.719 309.667 296.202 304.883 293.169 301.5C290.252 298 285.935 296.25 280.219 296.25C274.735 296.25 270.36 298 267.094 301.5C263.827 304.883 262.194 309.667 262.194 315.85V363.625C262.194 364.908 261.785 365.958 260.969 366.775C260.152 367.592 259.16 368 257.994 368H239.444ZM388.686 406.5C380.053 406.5 372.878 405.333 367.161 403C361.444 400.783 356.894 398.042 353.511 394.775C350.244 391.625 347.911 388.475 346.511 385.325C345.111 382.175 344.353 379.725 344.236 377.975C344.119 376.692 344.528 375.642 345.461 374.825C346.394 374.008 347.444 373.6 348.611 373.6H367.336C368.386 373.6 369.261 373.833 369.961 374.3C370.778 374.883 371.419 375.817 371.886 377.1C372.469 378.5 373.286 379.958 374.336 381.475C375.386 383.108 376.961 384.45 379.061 385.5C381.278 386.55 384.194 387.075 387.811 387.075C391.894 387.075 395.278 386.492 397.961 385.325C400.644 384.158 402.628 382.175 403.911 379.375C405.311 376.575 406.011 372.783 406.011 368V356.275C403.211 359.308 399.653 361.817 395.336 363.8C391.136 365.783 385.944 366.775 379.761 366.775C373.694 366.775 368.328 365.842 363.661 363.975C359.111 361.992 355.319 359.25 352.286 355.75C349.253 352.133 346.919 347.817 345.286 342.8C343.653 337.783 342.719 332.125 342.486 325.825C342.369 322.675 342.369 319.583 342.486 316.55C342.719 310.483 343.653 304.942 345.286 299.925C346.919 294.908 349.253 290.592 352.286 286.975C355.319 283.242 359.111 280.383 363.661 278.4C368.328 276.3 373.694 275.25 379.761 275.25C386.178 275.25 391.661 276.475 396.211 278.925C400.761 281.375 404.494 284.408 407.411 288.025V281.375C407.411 280.208 407.819 279.217 408.636 278.4C409.453 277.467 410.444 277 411.611 277H428.761C429.928 277 430.919 277.467 431.736 278.4C432.669 279.217 433.136 280.208 433.136 281.375L433.311 365.55C433.311 374.3 431.619 381.708 428.236 387.775C424.853 393.842 419.836 398.45 413.186 401.6C406.653 404.867 398.486 406.5 388.686 406.5ZM387.811 346.3C392.011 346.3 395.394 345.367 397.961 343.5C400.644 341.517 402.628 339.067 403.911 336.15C405.194 333.117 405.894 329.967 406.011 326.7C406.128 325.417 406.186 323.608 406.186 321.275C406.186 318.825 406.128 316.958 406.011 315.675C405.894 312.408 405.194 309.317 403.911 306.4C402.628 303.367 400.644 300.917 397.961 299.05C395.394 297.183 392.011 296.25 387.811 296.25C383.378 296.25 379.878 297.242 377.311 299.225C374.744 301.092 372.878 303.6 371.711 306.75C370.544 309.9 369.844 313.342 369.611 317.075C369.494 319.875 369.494 322.617 369.611 325.3C369.844 329.15 370.544 332.65 371.711 335.8C372.878 338.95 374.744 341.517 377.311 343.5C379.878 345.367 383.378 346.3 387.811 346.3Z" fill="white"/>
</svg>
